# xmcd CD database file
#
# Track frame offsets:
#	150
#	24307
#	48202
#	67724
#	92000
#	109581
#	129173
#	163637
#	184515
#	201809
#	224271
#	236225
#	251805
#	272687
#	293732
#
# Disc length: 4310 seconds
#
# Revision: 1
# Processed by: cddbd v1.5.2PL0 Copyright (c) Steve Scherf et al.
# Submitted via: CDex 1.51
#
DISCID=c910d40f
DTITLE=Thomas Stelzer Trio - Train Train - live
DYEAR=2005
DGENRE=Boogie Woogie
TTITLE0=See See Rider
TTITLE1=Go To The Mardi Gras
TTITLE2=Key To The Highway
TTITLE3=Good Night, Irene
TTITLE4=Came Home This Evenin'
TTITLE5=Hey Willie
TTITLE6=Junko Partner
TTITLE7=Big Chief
TTITLE8=Willie And The Hand Jive
TTITLE9=Homesick Blues
TTITLE10=Sick and Tired
TTITLE11=Red Sails In The Sunset
TTITLE12=Ramblin' Blues
TTITLE13=Blow Wind Blow
TTITLE14=Train Train
EXTD=YEAR: 2005
EXTT0=
EXTT1=
EXTT2=
EXTT3=
EXTT4=
EXTT5=
EXTT6=
EXTT7=
EXTT8=
EXTT9=
EXTT10=
EXTT11=
EXTT12=
EXTT13=
EXTT14=
PLAYORDER=
